<?xml version="1.0" encoding="UTF-8"?>
<svg version="1.1" xmlns="http://www.w3.org/2000/svg" width="1024" height="1024">
<path d="M0 0 C337.92 0 675.84 0 1024 0 C1024 337.92 1024 675.84 1024 1024 C686.08 1024 348.16 1024 0 1024 C0 686.08 0 348.16 0 0 Z " fill="#FEFEFE" transform="translate(0,0)"/>
<path d="M0 0 C1.00909424 0.27287842 1.00909424 0.27287842 2.03857422 0.55126953 C32.74559307 9.1222733 60.99873852 30.40886494 77.15234375 57.96582031 C79.68509896 62.53334239 81.90322075 67.21873453 84 72 C84.28214355 72.63486328 84.56428711 73.26972656 84.85498047 73.92382812 C98.89952235 106.20061854 96.67316976 142.18555335 84.66015625 174.6171875 C72.41804247 205.06986941 46.91679235 229.1155147 17 242 C-16.46190921 254.8347049 -51.67893143 255.74958591 -85 242 C-99.38513171 235.56462342 -111.5584781 226.80588179 -123 216 C-124.21816406 214.89591797 -124.21816406 214.89591797 -125.4609375 213.76953125 C-145.48854906 194.91072352 -157.05184553 167.87102147 -161 141 C-161.13148438 140.13375 -161.26296875 139.2675 -161.3984375 138.375 C-165.32723126 106.9446499 -157.05492495 73.59988396 -138.38671875 47.9921875 C-134.18960057 42.73033394 -129.66860503 37.84332827 -125 33 C-124.34515625 32.28199219 -123.6903125 31.56398438 -123.015625 30.82421875 C-92.64145636 -1.56191405 -41.68325706 -11.51089717 0 0 Z " fill="#24C4FD" transform="translate(240,377)"/>
<path d="M0 0 C6.42168794 5.56681981 9.65831804 12.2098539 12.52734375 20.07421875 C14.42457127 25.18695352 16.31737927 30.02694217 19.11328125 34.72265625 C21.59716318 39.03447039 22.45208679 42.92338622 23.02734375 47.82421875 C24.03060672 56.12529085 26.77795838 60.98806823 33.21484375 66.57421875 C34.51808594 67.71503906 34.51808594 67.71503906 35.84765625 68.87890625 C36.71132813 69.62398438 37.575 70.3690625 38.46484375 71.13671875 C40.00694225 72.49039364 41.54865492 73.84450828 43.08984375 75.19921875 C44.21419142 76.1791344 45.3389213 77.15861293 46.46484375 78.13671875 C45.12728302 82.39790948 43.54869062 84.17662565 39.90234375 86.69921875 C36.60071896 88.90541491 36.60071896 88.90541491 34.59765625 92.19140625 C34.39881526 95.10384197 35.92467695 96.73405855 37.46484375 99.13671875 C37.46484375 100.12671875 37.46484375 101.11671875 37.46484375 102.13671875 C35.46484375 103.82421875 35.46484375 103.82421875 33.46484375 105.13671875 C33.77421875 105.71421875 34.08359375 106.29171875 34.40234375 106.88671875 C36.32925053 110.96722722 36.32925053 110.96722722 36.46484375 113.13671875 C35.80742187 113.68457031 35.15 114.23242188 34.47265625 114.796875 C31.02522912 118.81440195 32.39463526 123.46953199 32.71484375 128.5078125 C32.41529341 132.85597289 31.71389962 134.26776076 28.46484375 137.13671875 C21.59891463 140.05518216 14.08655446 139.51805948 6.73828125 139.61523438 C-0.53685684 139.58026182 -0.53685684 139.58026182 -6.53515625 143.13671875 C-11.42139383 151.26953256 -13.48258923 161.26428077 -16.1796875 170.27148438 C-16.55480469 171.48126953 -16.92992187 172.69105469 -17.31640625 173.9375 C-17.64705078 175.03231689 -17.97769531 176.12713379 -18.31835938 177.25512695 C-19.63203629 180.36614794 -20.9508889 181.99362209 -23.53515625 184.13671875 C-26.0859375 185.1484375 -26.0859375 185.1484375 -28.84765625 185.82421875 C-29.75128906 186.05496094 -30.65492188 186.28570313 -31.5859375 186.5234375 C-46.36702148 189.59711986 -61.59173964 188.79730981 -76.41015625 186.38671875 C-77.89696899 186.15142456 -77.89696899 186.15142456 -79.41381836 185.91137695 C-86.12850152 184.71774456 -92.56341446 183.10846054 -97.53515625 178.13671875 C-97.19041944 173.29756749 -95.98158986 169.17174983 -94.20703125 164.6796875 C-93.73652344 163.48408203 -93.26601562 162.28847656 -92.78125 161.05664062 C-92.53487793 160.44232178 -92.28850586 159.82800293 -92.03466797 159.19506836 C-91.29255626 157.34268986 -90.56417086 155.4848315 -89.8359375 153.62695312 C-87.05496187 146.61422189 -84.05801556 139.80912232 -80.53515625 133.13671875 C-79.71273437 133.20890625 -78.8903125 133.28109375 -78.04296875 133.35546875 C-61.39254041 134.73979997 -49.66667451 134.13847825 -35.53515625 124.13671875 C-33.7238849 122.04678021 -33.7238849 122.04678021 -32.53515625 120.13671875 C-49.65473931 117.34168478 -61.9259977 120.34753116 -77.53515625 127.13671875 C-74.97758976 118.84806087 -71.7660811 109.409087 -65.53515625 103.13671875 C-60.86894519 101.01560422 -55.69000868 101.7917211 -50.70458984 102.10351562 C-40.4816161 102.25997797 -30.30777202 97.4694893 -22.53515625 91.13671875 C-19.44821244 88.09920999 -16.4835973 85.03360085 -14.53515625 81.13671875 C-30.83482253 80.57822765 -42.99114133 83.88458016 -57.53515625 91.13671875 C-54.16293582 84.14477547 -50.4045438 79.4647746 -43.78515625 75.26171875 C-28.638777 65.58903101 -20.40160911 52.60253019 -16.12890625 35.51171875 C-15.56438856 32.30288135 -15.41628111 29.38597257 -15.53515625 26.13671875 C-35.23606445 37.78497436 -45.8125645 52.16053226 -52.64990234 73.7668457 C-54.30056398 78.82158791 -56.45653173 82.82664442 -59.53515625 87.13671875 C-60.19515625 86.80671875 -60.85515625 86.47671875 -61.53515625 86.13671875 C-61.3753125 85.43417969 -61.21546875 84.73164063 -61.05078125 84.0078125 C-58.88562576 71.95183307 -60.73350392 57.98328615 -66.53515625 47.13671875 C-67.19515625 46.80671875 -67.85515625 46.47671875 -68.53515625 46.13671875 C-68.80328125 46.96171875 -69.07140625 47.78671875 -69.34765625 48.63671875 C-70.423492 51.80760307 -71.60296897 54.90640843 -72.8515625 58.01171875 C-76.4558666 69.21595548 -75.49033697 82.96090893 -70.37109375 93.54296875 C-68.36128804 99.77900143 -71.32223296 105.57957541 -73.91015625 111.19921875 C-74.214375 111.88048828 -74.51859375 112.56175781 -74.83203125 113.26367188 C-76.63439542 117.27277679 -78.54223837 121.21812868 -80.53515625 125.13671875 C-80.86515625 125.13671875 -81.19515625 125.13671875 -81.53515625 125.13671875 C-81.54933594 124.38390625 -81.56351562 123.63109375 -81.578125 122.85546875 C-82.14984916 110.12301717 -85.35923102 96.27801062 -93.53515625 86.13671875 C-95.16702506 84.76101539 -96.82765645 83.4173436 -98.53515625 82.13671875 C-98.65267063 86.26147356 -98.72284449 90.38578993 -98.78515625 94.51171875 C-98.83542969 96.24615234 -98.83542969 96.24615234 -98.88671875 98.015625 C-98.99536723 107.6310151 -97.35041899 115.48709367 -90.97265625 122.94921875 C-89.80917037 124.33037237 -88.66297561 125.72629037 -87.53515625 127.13671875 C-86.90351563 127.89855469 -86.271875 128.66039062 -85.62109375 129.4453125 C-84.53515625 132.13671875 -84.53515625 132.13671875 -85.703125 135.65234375 C-86.35396632 136.90895795 -87.02813027 138.15371131 -87.72265625 139.38671875 C-88.05330078 140.02351562 -88.38394531 140.6603125 -88.72460938 141.31640625 C-91.20602282 145.97215203 -91.20602282 145.97215203 -93.53515625 147.13671875 C-98.75939115 147.58829196 -102.78952355 146.31645203 -107.59765625 144.51171875 C-108.29181641 144.27582031 -108.98597656 144.03992188 -109.70117188 143.796875 C-114.86480003 141.88442013 -117.41025577 139.68569749 -120.53515625 135.13671875 C-121.6171875 132.75 -121.6171875 132.75 -122.34765625 130.44921875 C-123.8636849 126.30334449 -125.80387066 123.28754946 -128.53515625 119.82421875 C-131.73498861 115.69672856 -133.2332775 112.32775077 -134.47265625 107.26171875 C-135.58792731 102.74701409 -135.58792731 102.74701409 -138.6328125 99.44921875 C-140.20535296 98.67189794 -141.79823162 97.93414857 -143.41015625 97.2421875 C-147.40796112 95.1624471 -148.787397 91.48966785 -150.12109375 87.29296875 C-150.64513024 84.56402401 -150.66716269 81.97727037 -150.66015625 79.19921875 C-150.66273438 78.17957031 -150.6653125 77.15992188 -150.66796875 76.109375 C-150.53515625 73.13671875 -150.53515625 73.13671875 -150.01171875 70.87109375 C-149.56349086 68.2992944 -149.52876739 66.15309982 -149.61328125 63.5546875 C-149.6390625 62.70455078 -149.66484375 61.85441406 -149.69140625 60.97851562 C-149.7535149 59.22006437 -149.83144476 57.46209518 -149.92578125 55.70507812 C-150.08120535 49.26954885 -148.82146619 45.02570015 -144.53515625 40.13671875 C-141.88671875 38.10546875 -141.88671875 38.10546875 -139.16015625 36.63671875 C-135.43665221 34.45226305 -132.724869 32.51510191 -130.03515625 29.13671875 C-127.3454435 25.75833559 -124.63366029 23.82117445 -120.91015625 21.63671875 C-116.35196594 18.91550405 -114.06472738 16.53920806 -111.55859375 11.91796875 C-109.22826014 7.86212093 -105.33507915 6.010074 -101.34765625 3.88671875 C-97.74846115 1.95602469 -94.72953353 -0.24353485 -91.59765625 -2.86328125 C-67.6874046 -22.51046477 -24.54281407 -15.39257059 0 0 Z " fill="#1F1E21" transform="translate(260.53515625,420.86328125)"/>
<path d="M0 0 C8.83050405 6.98225902 13.89754895 14.9657739 15.6875 26.125 C16.75006669 41.49901181 15.04524153 56.90357817 4.98828125 69.203125 C3.30203632 70.75965878 1.65290703 71.94492475 -0.3125 73.125 C-0.93253906 73.53234375 -1.55257812 73.9396875 -2.19140625 74.359375 C-9.7678243 78.55731441 -19.57854012 78.24592449 -27.91015625 76.6171875 C-32.7491822 74.9948551 -37.97596938 71.79806124 -40.3125 67.125 C-40.6425 79.995 -40.9725 92.865 -41.3125 106.125 C-47.9125 106.125 -54.5125 106.125 -61.3125 106.125 C-61.3125 70.155 -61.3125 34.185 -61.3125 -2.875 C-54.7125 -2.875 -48.1125 -2.875 -41.3125 -2.875 C-40.9825 -0.235 -40.6525 2.405 -40.3125 5.125 C-39.384375 4.2175 -38.45625 3.31 -37.5 2.375 C-26.39502395 -7.09227251 -12.3018271 -6.96329836 0 0 Z " fill="#1E1E22" transform="translate(627.3125,498.875)"/>
<path d="M0 0 C6.6 0 13.2 0 20 0 C20 14.52 20 29.04 20 44 C35.84 44 51.68 44 68 44 C68 29.48 68 14.96 68 0 C74.6 0 81.2 0 88 0 C88 34.98 88 69.96 88 106 C81.4 106 74.8 106 68 106 C68 91.48 68 76.96 68 62 C52.16 62 36.32 62 20 62 C20 76.52 20 91.04 20 106 C13.4 106 6.8 106 0 106 C0 71.02 0 36.04 0 0 Z " fill="#1F1F22" transform="translate(381,468)"/>
<path d="M0 0 C8.75899579 6.2165356 13.20743688 15.21784428 15.390625 25.52734375 C15.390625 30.47734375 15.390625 35.42734375 15.390625 40.52734375 C-2.099375 40.52734375 -19.589375 40.52734375 -37.609375 40.52734375 C-35.3303348 52.26689436 -35.3303348 52.26689436 -27.984375 59.33984375 C-22.69527385 61.20082378 -17.5638699 61.78287953 -12.29296875 59.54296875 C-9.32410116 57.77148975 -7.11941229 56.37895147 -5.3203125 53.375 C-3.609375 51.52734375 -3.609375 51.52734375 -0.39453125 51.1015625 C0.83394531 51.13894531 2.06242188 51.17632813 3.328125 51.21484375 C4.55402344 51.23933594 5.77992188 51.26382813 7.04296875 51.2890625 C9.66846493 51.47594146 11.89191605 51.75706505 14.390625 52.52734375 C12.95174532 60.04149321 9.08123888 65.74755445 2.953125 70.36328125 C-7.82970502 77.10255001 -20.29040591 78.50230293 -32.6875 75.875 C-43.30428668 71.98551683 -50.63404285 64.55534482 -55.609375 54.52734375 C-58.16450077 48.39164589 -59.13407121 42.84175543 -59.046875 36.21484375 C-59.03785156 35.38597656 -59.02882813 34.55710937 -59.01953125 33.703125 C-58.68393218 21.73342474 -54.70715212 12.41620034 -46.609375 3.52734375 C-33.52904949 -8.02105175 -14.91052286 -8.41507053 0 0 Z " fill="#1E1E21" transform="translate(709.609375,499.47265625)"/>
<path d="M0 0 C6.27 0 12.54 0 19 0 C19.33 19.14 19.66 38.28 20 58 C31.03649824 46.25013204 31.03649824 46.25013204 41.5 34 C46.9133058 28.48667931 50.4797192 27.2490134 58.17773438 27.05078125 C62.81194515 27.15835609 67.39638933 27.45860872 72 28 C68.41767715 32.39064185 64.63116191 36.40452902 60.56640625 40.35546875 C60.08126556 40.82800079 59.59612488 41.30053284 59.09628296 41.78738403 C57.06931613 43.76014924 55.0410514 45.73100235 52.99438477 47.68334961 C51.48614225 49.12528534 49.99408031 50.58239902 48.50390625 52.04296875 C47.61517822 52.89914795 46.7264502 53.75532715 45.81079102 54.63745117 C43.75309247 56.75577737 43.75309247 56.75577737 44.21334839 58.86782837 C45.12474766 61.338121 46.31468255 63.28497028 47.77563477 65.47729492 C48.35616104 66.35467819 48.93668732 67.23206146 49.5348053 68.1360321 C50.16398361 69.0746962 50.79316193 70.01336029 51.44140625 70.98046875 C52.08367661 71.94906326 52.72594696 72.91765778 53.38768005 73.91560364 C55.44059084 77.00983853 57.50111638 80.09890461 59.5625 83.1875 C61.6262616 86.28757622 63.68840046 89.38870939 65.74803162 92.49153137 C67.03072064 94.42307305 68.31603863 96.3528718 69.60414124 98.2808075 C70.47020241 99.58269768 70.47020241 99.58269768 71.35375977 100.91088867 C71.86592545 101.67825851 72.37809113 102.44562836 72.90577698 103.23625183 C74 105 74 105 74 106 C53.77614204 108.51168047 53.77614204 108.51168047 48.07519531 104.71972656 C44.87043318 101.13268665 43.0667888 96.79533336 41.16308594 92.42285156 C39.03524324 87.99029258 36.16252845 84.03730542 33.375 80 C32.33930585 78.45956883 31.30528525 76.9180103 30.2734375 75.375 C29.51596496 74.24977107 28.75829265 73.12467641 28 72 C26.85373678 72.97866338 25.70800212 73.95794587 24.5625 74.9375 C23.92441406 75.48277344 23.28632812 76.02804687 22.62890625 76.58984375 C20.19334949 78.50173317 20.19334949 78.50173317 19.79467773 81.59204102 C19.75802002 82.71795654 19.7213623 83.84387207 19.68359375 85.00390625 C19.64169922 86.21884766 19.59980469 87.43378906 19.55664062 88.68554688 C19.51732422 89.96494141 19.47800781 91.24433594 19.4375 92.5625 C19.39431641 93.84576172 19.35113281 95.12902344 19.30664062 96.45117188 C19.20015281 99.63397445 19.09953579 102.81697243 19 106 C12.73 106 6.46 106 0 106 C0 71.02 0 36.04 0 0 Z " fill="#1E1E21" transform="translate(794,468)"/>
<path d="M0 0 C6.93 0 13.86 0 21 0 C21.54003662 1.56999756 22.08007324 3.13999512 22.63647461 4.75756836 C24.63321461 10.56001423 26.63376691 16.36113951 28.63549805 22.16186523 C29.50275737 24.67680343 30.36897025 27.19210273 31.23413086 29.70776367 C32.47497652 33.31523656 33.71953023 36.92141114 34.96484375 40.52734375 C35.35341049 41.65961899 35.74197723 42.79189423 36.14231873 43.95848083 C36.50261673 44.99948441 36.86291473 46.04048798 37.23413086 47.11303711 C37.55167831 48.03459091 37.86922577 48.95614471 38.19639587 49.90562439 C38.82006593 51.95568934 38.82006593 51.95568934 40 53 C40.21075668 52.36550934 40.42151337 51.73101868 40.63865662 51.07730103 C42.8267198 44.49103811 45.01687085 37.9054722 47.20825195 31.3203125 C48.02649984 28.86053098 48.84420986 26.40057047 49.66137695 23.94042969 C50.83404432 20.41033824 52.00862584 16.88088879 53.18359375 13.3515625 C53.55028671 12.24632233 53.91697968 11.14108215 54.29478455 10.00234985 C54.6350618 8.98144257 54.97533905 7.96053528 55.32592773 6.90869141 C55.6257103 6.00712311 55.92549286 5.10555481 56.23435974 4.17666626 C57 2 57 2 58 0 C64.93 0 71.86 0 79 0 C75.6246606 11.25113134 75.6246606 11.25113134 73.96630859 15.80322266 C73.59516937 16.8261441 73.22403015 17.84906555 72.84164429 18.90298462 C72.44788605 19.97914032 72.05412781 21.05529602 71.6484375 22.1640625 C71.02094101 23.88863174 71.02094101 23.88863174 70.38076782 25.64804077 C69.49622053 28.07736759 68.61032115 30.50620248 67.72314453 32.93457031 C66.39704215 36.5646615 65.07508606 40.19623975 63.75390625 43.828125 C61.60157666 49.7400544 59.43482177 55.64657616 57.26306152 61.5513916 C56.01661048 64.95464746 54.78526436 68.36308644 53.55566406 71.77246094 C52.77974044 73.89794844 52.00339361 76.0232815 51.2265625 78.1484375 C50.88764984 79.09981598 50.54873718 80.05119446 50.19955444 81.03140259 C45.44938365 93.92103117 39.40053403 102.79973298 27 109 C25.56365857 109.09505069 24.12307525 109.13072867 22.68359375 109.1328125 C21.41418945 109.13474609 21.41418945 109.13474609 20.11914062 109.13671875 C19.23419922 109.13285156 18.34925781 109.12898437 17.4375 109.125 C16.54869141 109.12886719 15.65988281 109.13273438 14.74414062 109.13671875 C13.89916016 109.13542969 13.05417969 109.13414062 12.18359375 109.1328125 C11.01654907 109.13112061 11.01654907 109.13112061 9.82592773 109.12939453 C8 109 8 109 7 108 C7.06454174 105.70583447 7.20183913 103.4135315 7.375 101.125 C7.46523438 99.86945313 7.55546875 98.61390625 7.6484375 97.3203125 C8 94 8 94 9 91 C9.88042969 90.97421875 10.76085937 90.9484375 11.66796875 90.921875 C13.41013672 90.83679688 13.41013672 90.83679688 15.1875 90.75 C16.33605469 90.70359375 17.48460937 90.6571875 18.66796875 90.609375 C22.52667267 89.90368003 24.21257291 88.7067782 27 86 C29.43902101 81.89801012 29.04717823 78.48658799 28 74 C26.75168914 70.22771128 25.28566963 66.55106691 23.80859375 62.86328125 C23.38506119 61.78862106 22.96152863 60.71396088 22.52516174 59.60673523 C21.1696972 56.17247033 19.80374873 52.74248688 18.4375 49.3125 C17.54553736 47.05691202 16.654255 44.80105489 15.76367188 42.54492188 C12.39330031 34.01833102 9.02032118 25.49324302 5.56298828 17.00146484 C5.187715 16.07609421 4.81244171 15.15072357 4.42579651 14.1973114 C3.72619783 12.47492455 3.02229649 10.75427673 2.31333923 9.03572083 C0 3.33419924 0 3.33419924 0 0 Z " fill="#202023" transform="translate(479,496)"/>
<path d="M0 0 C6.27 0 12.54 0 19 0 C19 6.27 19 12.54 19 19 C24.28 19 29.56 19 35 19 C35 24.28 35 29.56 35 35 C29.72 35 24.44 35 19 35 C19.04412923 40.90875208 19.11393803 46.81643318 19.20751953 52.72460938 C19.23573807 54.73428827 19.25694821 56.74407834 19.27099609 58.75390625 C19.29241335 61.64380849 19.33905703 64.5323729 19.390625 67.421875 C19.39185364 68.31992859 19.39308228 69.21798218 19.39434814 70.14324951 C19.49101618 75.19112801 19.49101618 75.19112801 21.8359375 79.56054688 C24.82113468 81.54618796 27.19309342 81.60772374 30.75 81.75 C32.8125 81.8325 34.875 81.915 37 82 C37 87.28 37 92.56 37 98 C26.96919898 99.67180017 15.77493284 101.16719791 7 95 C2.56167921 91.09866123 0.24546315 86.48852551 -0.17071533 80.5737915 C-0.23132097 77.61212608 -0.22468943 74.65745251 -0.1953125 71.6953125 C-0.1924826 70.61619598 -0.18965271 69.53707947 -0.18673706 68.42526245 C-0.1755766 64.99172701 -0.1504793 61.55845609 -0.125 58.125 C-0.11496487 55.79167044 -0.10583995 53.45833678 -0.09765625 51.125 C-0.07565075 45.41656534 -0.04114908 39.70832746 0 34 C-3.63 34 -7.26 34 -11 34 C-11 29.05 -11 24.1 -11 19 C-7.37 19 -3.74 19 0 19 C0 12.73 0 6.46 0 0 Z " fill="#1F1F22" transform="translate(917,476)"/>
<path d="M0 0 C4.95 0 9.9 0 15 0 C20.94 14.52 26.88 29.04 33 44 C37.30141289 34.53749205 37.30141289 34.53749205 41.296875 24.9609375 C41.57597717 24.26860016 41.85507935 23.57626282 42.14263916 22.86294556 C43.31375168 19.95778212 44.47918065 17.05034929 45.64501953 14.14306641 C46.50608686 11.99819161 47.37013213 9.85453427 48.234375 7.7109375 C48.62964386 6.72049942 48.62964386 6.72049942 49.03289795 5.71005249 C50.88713826 1.11286174 50.88713826 1.11286174 52 0 C56.62 0 61.24 0 66 0 C66 20.79 66 41.58 66 63 C62.37 63 58.74 63 55 63 C54.505 42.21 54.505 42.21 54 21 C51.916875 26.28 49.83375 31.56 47.6875 37 C47.03612061 38.65 46.38474121 40.3 45.71362305 42 C45.18793549 43.33331252 44.66229754 44.6666446 44.13671875 46 C43.87137329 46.67160156 43.60602783 47.34320313 43.3326416 48.03515625 C41.50575662 52.67231133 39.74002242 57.32953352 38 62 C35.03 62 32.06 62 29 62 C23.39 48.14 17.78 34.28 12 20 C11.67 34.19 11.34 48.38 11 63 C7.37 63 3.74 63 0 63 C0 42.21 0 21.42 0 0 Z " fill="#202023" transform="translate(381,376)"/>
<path d="M0 0 C0 5.61 0 11.22 0 17 C-3.2175 17.3403125 -3.2175 17.3403125 -6.5 17.6875 C-12.71160419 18.60355476 -17.43802619 19.56440087 -22 24 C-26.02002235 30.35691308 -26.59995532 36.58328292 -26.609375 43.94140625 C-26.62591125 44.94968979 -26.64244751 45.95797333 -26.65948486 46.99681091 C-26.70767905 50.18543767 -26.72927244 53.37358852 -26.75 56.5625 C-26.77818354 58.73765379 -26.80811427 60.91278568 -26.83984375 63.08789062 C-26.91668762 68.39214001 -26.95747433 73.6949231 -27 79 C-33.6 79 -40.2 79 -47 79 C-47 52.93 -47 26.86 -47 0 C-40.4 0 -33.8 0 -27 0 C-26.67 2.64 -26.34 5.28 -26 8 C-25.5875 7.60167969 -25.175 7.20335937 -24.75 6.79296875 C-17.6199552 0.25178925 -9.65647566 -3.21882522 0 0 Z " fill="#1F1F22" transform="translate(784,495)"/>
<path d="M0 0 C6.6 0 13.2 0 20 0 C20 26.07 20 52.14 20 79 C13.4 79 6.8 79 0 79 C0 52.93 0 26.86 0 0 Z " fill="#1C1C1F" transform="translate(876,495)"/>
<path d="M0 0 C1.54300781 -0.03867187 1.54300781 -0.03867187 3.1171875 -0.078125 C7.99377099 0.45386593 10.48372109 2.57889417 13.8125 6.0625 C17.83138657 11.60204635 18.4885626 16.78076295 18.4375 23.5 C18.43121582 24.62390137 18.43121582 24.62390137 18.42480469 25.77050781 C18.27872968 32.96547871 17.12819657 39.00344005 13.3125 45.1875 C9.07396701 49.18383111 5.44451351 50.4509104 -0.3125 50.6875 C-6.89176689 50.49083713 -10.54866115 48.63921287 -15.1875 43.875 C-19.10087707 37.78752456 -19.24011123 31.89602427 -19.25 24.875 C-19.27449219 23.9675 -19.29898438 23.06 -19.32421875 22.125 C-19.35349168 15.35319487 -18.18002603 9.72585372 -13.3918457 4.69018555 C-9.02629503 0.88205408 -5.65612559 0.08463031 0 0 Z " fill="#FDFDFD" transform="translate(604.875,509.75)"/>
<path d="M0 0 C4.17766593 3.30970337 6.44045198 7.99303004 8 13 C8 16.63 8 20.26 8 24 C-7.345 24.495 -7.345 24.495 -23 25 C-21.43719307 30.51021055 -21.43719307 30.51021055 -18 34 C-14.85088521 35.57455739 -12.47991184 35.34799118 -9 35 C-7.53955693 33.73004951 -6.07999384 32.45706169 -4.6796875 31.12109375 C-1.50965433 29.00528091 2.35761098 29.30794609 6 30 C6.66 30.66 7.32 31.32 8 32 C4.22782145 38.23860298 0.11677116 42.61719958 -7 45 C-14.32490074 45.95445676 -20.78079137 45.09764623 -27 41 C-32.90986993 36.00829367 -35.35802935 29.8718439 -36.3515625 22.33203125 C-36.77590655 14.41466457 -34.62054339 8.06679641 -29.3203125 2.11328125 C-20.40525595 -6.06875954 -10.35332278 -5.17666139 0 0 Z " fill="#212123" transform="translate(490,395)"/>
<path d="M0 0 C3.29809649 2.80338202 5.12086049 5.75998341 6 10 C4.23303157 10.27599507 2.46103785 10.51996915 0.6875 10.75 C-0.29863281 10.88921875 -1.28476562 11.0284375 -2.30078125 11.171875 C-3.19152344 11.11515625 -4.08226562 11.0584375 -5 11 C-6.02323436 9.68441297 -7.02342393 8.35058393 -8 7 C-10.50880616 6.51738333 -10.50880616 6.51738333 -13.1875 6.75 C-14.08855469 6.78609375 -14.98960937 6.8221875 -15.91796875 6.859375 C-16.60503906 6.90578125 -17.29210937 6.9521875 -18 7 C-18.33 8.65 -18.66 10.3 -19 12 C-13.74167828 14.85169172 -8.49448341 16.43194194 -2.74609375 17.9296875 C2.00998797 19.29627431 4.33827019 20.82863238 7 25 C8.91382004 28.82764007 8.16665913 32.99746174 7 37 C3.15579397 42.13496134 -1.67376055 44.96479718 -8 46 C-14.97775558 46.64608848 -20.99399469 44.8950903 -26.875 41.1875 C-29.6609709 38.31958878 -32 35.12613911 -32 31 C-28.28393395 29.81085886 -24.87581117 29.57718424 -21 30 C-19.1875 32.4375 -19.1875 32.4375 -18 35 C-15.6603331 36.16983345 -14.16608473 36.1661241 -11.5625 36.1875 C-10.78003906 36.20167969 -9.99757813 36.21585937 -9.19140625 36.23046875 C-6.70794013 36.14086064 -6.70794013 36.14086064 -4 34 C-3.74969023 31.41619823 -3.74969023 31.41619823 -4 29 C-4.66644531 28.82984375 -5.33289063 28.6596875 -6.01953125 28.484375 C-25.09333491 23.46916509 -25.09333491 23.46916509 -29.1875 19.375 C-31.65127475 14.78728149 -32.01128371 11.0978646 -31 6 C-28.26685969 1.30241509 -25.23694157 -0.93352499 -20.16796875 -2.53125 C-13.22206863 -4.03306624 -6.3374692 -3.30383569 0 0 Z " fill="#1F1F21" transform="translate(588,394)"/>
<path d="M0 0 C3.96 0 7.92 0 12 0 C12 3.63 12 7.26 12 11 C15.3 11 18.6 11 22 11 C22 13.97 22 16.94 22 20 C18.7 20 15.4 20 12 20 C12.33 28.91 12.66 37.82 13 47 C15.97 47.66 18.94 48.32 22 49 C22.87890625 55.15234375 22.87890625 55.15234375 23 57 C21.08598477 58.91401523 17.86149652 58.26189296 15.3125 58.3125 C7.36366338 58.24780957 7.36366338 58.24780957 4.25 56.3125 C0.075689 52.02223592 -0.24674495 48.00555151 -0.1953125 42.16796875 C-0.18564453 40.22954102 -0.18564453 40.22954102 -0.17578125 38.25195312 C-0.15907327 36.8971327 -0.14214342 35.54231499 -0.125 34.1875 C-0.11496003 32.81315749 -0.10583596 31.43880797 -0.09765625 30.06445312 C-0.07411242 26.70945683 -0.04122567 23.35481801 0 20 C-2.31 20 -4.62 20 -7 20 C-7 17.03 -7 14.06 -7 11 C-4.69 11 -2.38 11 0 11 C0 7.37 0 3.74 0 0 Z " fill="#242426" transform="translate(508,381)"/>
<path d="M0 0 C3.96 0 7.92 0 12 0 C12 15.51 12 31.02 12 47 C8.04 47 4.08 47 0 47 C0 31.49 0 15.98 0 0 Z " fill="#2E2D30" transform="translate(537,392)"/>
<path d="M0 0 C4.82064071 2.37340079 8.04671078 6.39097373 9.97265625 11.37890625 C9.97265625 13.35890625 9.97265625 15.33890625 9.97265625 17.37890625 C-0.91734375 17.37890625 -11.80734375 17.37890625 -23.02734375 17.37890625 C-20.34441692 5.30573552 -20.34441692 5.30573552 -14.90234375 0.50390625 C-10.02999171 -1.40266629 -5.02460086 -1.53932859 0 0 Z " fill="#F8F8F8" transform="translate(695.02734375,509.62109375)"/>
<path d="M0 0 C6.6 0 13.2 0 20 0 C20 14.85 20 29.7 20 45 C19.34 44.67 18.68 44.34 18 44 C18 30.47 18 16.94 18 3 C12.72 2.67 7.44 2.34 2 2 C2 35.99 2 69.98 2 105 C7.61 105 13.22 105 19 105 C19 90.15 19 75.3 19 60 C34.84 60 50.68 60 67 60 C67 60.33 67 60.66 67 61 C51.49 61 35.98 61 20 61 C20 75.85 20 90.7 20 106 C13.4 106 6.8 106 0 106 C0 71.02 0 36.04 0 0 Z " fill="#0A0A0B" transform="translate(381,468)"/>
<path d="M0 0 C2.76101146 1.82109266 4.52100548 3.04201097 6 6 C6.55112923 10.59876684 6.61753151 13.97787887 4.1875 18 C0.5358862 21.33861833 -3.04984317 21.3314345 -7.7734375 21.29296875 C-11.06805697 20.85946619 -12.76517216 19.37450458 -15 17 C-16.73125121 13.53749757 -16.47815224 9.78591771 -16 6 C-12.02355245 -0.67475124 -7.42842155 -2.07818936 0 0 Z " fill="#1D1D20" transform="translate(891,465)"/>
<path d="M0 0 C6.6 0 13.2 0 20 0 C19.34 25.74 18.68 51.48 18 78 C17.67 78 17.34 78 17 78 C17 53.25 17 28.5 17 3 C12.38 3 7.76 3 3 3 C3 27.75 3 52.5 3 78 C1.515 78.495 1.515 78.495 0 79 C0 52.93 0 26.86 0 0 Z " fill="#414144" transform="translate(876,495)"/>
<path d="M0 0 C0.33 0 0.66 0 1 0 C1 19.47 1 38.94 1 59 C3.64 59 6.28 59 9 59 C9 45.14 9 31.28 9 17 C9.33 17 9.66 17 10 17 C10 31.52 10 46.04 10 61 C6.37 61 2.74 61 -1 61 C-1.0225708 53.34190096 -1.04092659 45.68381426 -1.05181217 38.02569008 C-1.05703606 34.46991365 -1.06412478 30.91416111 -1.07543945 27.35839844 C-1.08835914 23.27278409 -1.09323229 19.18719494 -1.09765625 15.1015625 C-1.10539818 13.18121689 -1.10539818 13.18121689 -1.11329651 11.22207642 C-1.11337204 10.04100311 -1.11344757 8.85992981 -1.11352539 7.64306641 C-1.115746 6.59937897 -1.11796661 5.55569153 -1.12025452 4.4803772 C-1 2 -1 2 0 0 Z " fill="#080709" transform="translate(382,378)"/>
<path d="M0 0 C3.82065101 0.8417143 5.47070997 2.49561334 8.0390625 5.44921875 C8.0390625 7.42921875 8.0390625 9.40921875 8.0390625 11.44921875 C1.7690625 11.44921875 -4.5009375 11.44921875 -10.9609375 11.44921875 C-9.9609375 4.44921875 -9.9609375 4.44921875 -8.3984375 2.01171875 C-5.57472408 0.20164605 -3.34833323 -0.18183832 0 0 Z " fill="#F7F7F7" transform="translate(477.9609375,399.55078125)"/>
<path d="M0 0 C2.5 1.5625 2.5 1.5625 4 4 C3.9375 7.625 3.9375 7.625 3 11 C-0.69486103 13.46324069 -2.63293092 13.38991688 -7 13 C-8.9375 11.9375 -8.9375 11.9375 -10 10 C-10.36528977 6.5906288 -10.6140629 4.11976176 -8.9375 1.0625 C-5.8347167 -0.63902633 -3.46230815 -0.42519574 0 0 Z " fill="#1E1E20" transform="translate(546,373)"/>
<path d="M0 0 C0.78117188 0.47566406 0.78117188 0.47566406 1.578125 0.9609375 C4.67408709 2.28920511 7.39404121 2.42364247 10.75 2.625 C12.8125 2.74875 14.875 2.8725 17 3 C17 8.28 17 13.56 17 19 C12.22464388 19.79589269 7.91388502 20.1228251 3.125 20.0625 C2.09246094 20.05573242 2.09246094 20.05573242 1.0390625 20.04882812 C-0.64066335 20.03716336 -2.32034375 20.01923271 -4 20 C-4 19.01 -4 18.02 -4 17 C5.9 16.505 5.9 16.505 16 16 C15.67 15.01 15.34 14.02 15 13 C14.87218214 10.32605036 14.95608129 7.67904143 15 5 C14.12988281 5.05220703 14.12988281 5.05220703 13.2421875 5.10546875 C7.990866 5.28744524 4.60488781 4.83377711 0 2 C0 1.34 0 0.68 0 0 Z " fill="#202022" transform="translate(937,555)"/>
<path d="M0 0 C2 2 2 2 3 4 C2.01 5.485 2.01 5.485 1 7 C6.38478134 9.69239067 14.59411837 8.64001688 20.23046875 7.140625 C22.06693722 6.45659626 23.89107846 5.73767342 25.6953125 4.97265625 C27.79351675 4.08714293 29.7802206 3.48589641 32 3 C29.63987122 5.7083445 27.40006885 6.85019927 24.0625 8.125 C23.20785156 8.45757813 22.35320312 8.79015625 21.47265625 9.1328125 C12.56969844 12.25517685 3.02485648 11.53824088 -6 9 C-6.66 8.34 -7.32 7.68 -8 7 C-7.34 7 -6.68 7 -6 7 C-6 6.34 -6 5.68 -6 5 C-5.67 4.67 -5.34 4.34 -5 4 C-4.525625 3.505 -4.05125 3.01 -3.5625 2.5 C-2 1 -2 1 0 0 Z " fill="#25D4F0" transform="translate(188,545)"/>
<path d="M0 0 C0.33 0.99 0.66 1.98 1 3 C1.66 3 2.32 3 3 3 C2.39534321 7.8093471 0.35519214 11.50384408 -1.9375 15.6875 C-2.29779297 16.36361328 -2.65808594 17.03972656 -3.02929688 17.73632812 C-4.49883226 20.45618644 -5.80233948 22.80233948 -8 25 C-8.99 24.67 -9.98 24.34 -11 24 C-9.54304237 20.74938156 -8.08419362 17.49961525 -6.625 14.25 C-6.2125 13.32960938 -5.8 12.40921875 -5.375 11.4609375 C-4.77558594 10.12675781 -4.77558594 10.12675781 -4.1640625 8.765625 C-3.79748535 7.94868164 -3.4309082 7.13173828 -3.05322266 6.29003906 C-2.07795543 4.16949975 -1.05708873 2.08075174 0 0 Z " fill="#25D4EF" transform="translate(190,523)"/>
<path d="M0 0 C6.6 0 13.2 0 20 0 C19.67 0.99 19.34 1.98 19 3 C13.39 3 7.78 3 2 3 C2 16.53 2 30.06 2 44 C1.67 44 1.34 44 1 44 C0.67 29.48 0.34 14.96 0 0 Z " fill="#2C2C2F" transform="translate(449,468)"/>
<path d="M0 0 C3.96 0 7.92 0 12 0 C12 3.63 12 7.26 12 11 C15.3 11 18.6 11 22 11 C22 11.33 22 11.66 22 12 C20.02090602 12.02686553 18.04171029 12.04633375 16.0625 12.0625 C14.96035156 12.07410156 13.85820313 12.08570313 12.72265625 12.09765625 C10 12 10 12 9 11 C8.92820036 9.48071962 8.91607993 7.95832518 8.9375 6.4375 C8.94652344 5.61121094 8.95554687 4.78492188 8.96484375 3.93359375 C8.97644531 3.29550781 8.98804688 2.65742188 9 2 C7.02 2 5.04 2 3 2 C3 4.97 3 7.94 3 11 C2.34 11 1.68 11 1 11 C0.67 7.37 0.34 3.74 0 0 Z " fill="#2D2C2E" transform="translate(508,381)"/>
<path d="M0 0 C0.66 0 1.32 0 2 0 C2 2.31 2 4.62 2 7 C-8.56 7 -19.12 7 -30 7 C-30 6.34 -30 5.68 -30 5 C-20.1 5 -10.2 5 0 5 C0 3.35 0 1.7 0 0 Z " fill="#0A090A" transform="translate(496,412)"/>
<path d="M0 0 C6.6 0 13.2 0 20 0 C19.67 11.22 19.34 22.44 19 34 C18.67 34 18.34 34 18 34 C18 23.44 18 12.88 18 2 C12.06 2 6.12 2 0 2 C0 1.34 0 0.68 0 0 Z " fill="#1F1F20" transform="translate(876,495)"/>
<path d="M0 0 C0.33 0.66 0.66 1.32 1 2 C0.22265625 3.9453125 0.22265625 3.9453125 -0.9375 6.125 C-1.31777344 6.84945312 -1.69804687 7.57390625 -2.08984375 8.3203125 C-2.54037109 9.15175781 -2.54037109 9.15175781 -3 10 C-2.34 10 -1.68 10 -1 10 C-1.33 11.32 -1.66 12.64 -2 14 C-1.236875 13.649375 -0.47375 13.29875 0.3125 12.9375 C3 12 3 12 6 13 C1.05 15.31 -3.9 17.62 -9 20 C-9 16.93847911 -8.62704837 15.88782926 -7.28515625 13.2421875 C-6.92873047 12.53449219 -6.57230469 11.82679688 -6.20507812 11.09765625 C-5.63950195 9.99744141 -5.63950195 9.99744141 -5.0625 8.875 C-4.68931641 8.13378906 -4.31613281 7.39257812 -3.93164062 6.62890625 C-1.15430775 1.15430775 -1.15430775 1.15430775 0 0 Z " fill="#241417" transform="translate(193,528)"/>
<path d="M0 0 C0.66 0.33 1.32 0.66 2 1 C2.35233161 5.40414508 2.35233161 5.40414508 1 8 C-2.7919751 10.493724 -6.8104774 12.27490246 -11 14 C-9.61557626 11.04567948 -8.01447893 8.48757231 -6.0625 5.875 C-5.55847656 5.19179688 -5.05445313 4.50859375 -4.53515625 3.8046875 C-3 2 -3 2 0 0 Z " fill="#241B20" transform="translate(214,498)"/>
<path d="M0 0 C0.33 0 0.66 0 1 0 C1.33 4.62 1.66 9.24 2 14 C2.99 14 3.98 14 5 14 C5 14.66 5 15.32 5 16 C5.66 16 6.32 16 7 16 C6.67 16.66 6.34 17.32 6 18 C5.34 17.67 4.68 17.34 4 17 C4 18.32 4 19.64 4 21 C2.35 21.33 0.7 21.66 -1 22 C-0.814375 21.4225 -0.62875 20.845 -0.4375 20.25 C0.04023546 17.79307475 -0.24270636 16.35602466 -1 14 C-1.66 14.66 -2.32 15.32 -3 16 C-3.625 14.1875 -3.625 14.1875 -4 12 C-3.34 11.01 -2.68 10.02 -2 9 C-1.33386665 6.72461677 -1.33386665 6.72461677 -0.875 4.3125 C-0.70742187 3.50425781 -0.53984375 2.69601562 -0.3671875 1.86328125 C-0.24601563 1.24839844 -0.12484375 0.63351562 0 0 Z " fill="#27C3EF" transform="translate(178,533)"/>
<path d="M0 0 C6.93 0 13.86 0 21 0 C24 9 24 9 23 13 C22.49384702 11.73160474 21.99530901 10.46016898 21.5 9.1875 C21.2215625 8.47980469 20.943125 7.77210938 20.65625 7.04296875 C20 5 20 5 20 2 C14.06 2 8.12 2 2 2 C2.33 3.65 2.66 5.3 3 7 C0 3.375 0 3.375 0 0 Z " fill="#0C0C0E" transform="translate(479,496)"/>
<path d="M0 0 C1.65 1.32 3.3 2.64 5 4 C5.99 3.01 6.98 2.02 8 1 C8 2.32 8 3.64 8 5 C8.66 5.66 9.32 6.32 10 7 C9.34 7 8.68 7 8 7 C8.2475 7.825 8.495 8.65 8.75 9.5 C9.08674599 14.21444389 7.35297489 17.02114976 5 21 C3.75453595 18.50907189 4.2232422 17.58919267 5 15 C4.01 16.98 3.02 18.96 2 21 C0.76406109 17.29218328 1.4321868 16.32489747 2.9375 12.8125 C3.31777344 11.91144531 3.69804687 11.01039063 4.08984375 10.08203125 C4.54037109 9.05142578 4.54037109 9.05142578 5 8 C4.175 7.05125 3.35 6.1025 2.5 5.125 C0 2.25 0 2.25 0 0 Z " fill="#26E0F8" transform="translate(170,544)"/>
<path d="M0 0 C0.45510807 6.67491831 -1.2327574 12.59374557 -3 19 C-3.33 19 -3.66 19 -4 19 C-3.67 15.37 -3.34 11.74 -3 8 C-4.32 8.33 -5.64 8.66 -7 9 C-7.33 7.35 -7.66 5.7 -8 4 C-1.125 0 -1.125 0 0 0 Z " fill="#26CBEC" transform="translate(246,446)"/>
<path d="M0 0 C6.93 0 13.86 0 21 0 C20.01 3.3 19.02 6.6 18 10 C17.01 10.495 17.01 10.495 16 11 C16.66 8.36 17.32 5.72 18 3 C12.39 2.67 6.78 2.34 1 2 C0.67 2.66 0.34 3.32 0 4 C0 2.68 0 1.36 0 0 Z " fill="#0C0D0E" transform="translate(537,496)"/>
<path d="M0 0 C0.78117188 0.47566406 0.78117188 0.47566406 1.578125 0.9609375 C4.67408709 2.28920511 7.39404121 2.42364247 10.75 2.625 C12.8125 2.74875 14.875 2.8725 17 3 C17 7.95 17 12.9 17 18 C16.34 17.67 15.68 17.34 15 17 C15 13.04 15 9.08 15 5 C13.63875 5.061875 12.2775 5.12375 10.875 5.1875 C6.54992907 5.20799797 3.73174881 4.29646081 0 2 C0 1.34 0 0.68 0 0 Z " fill="#161617" transform="translate(937,555)"/>
<path d="M0 0 C0.33 0.99 0.66 1.98 1 3 C1.66 3 2.32 3 3 3 C2.95359375 3.58007812 2.9071875 4.16015625 2.859375 4.7578125 C2.59525055 10.47422021 3.10507485 13.5350858 7 18 C9.92286553 20.76188154 12.92395591 23.41033895 16 26 C11.66597042 26 10.04673363 23.77058023 6.9375 20.94140625 C2.77096547 16.76647145 0.15098757 12.64785979 -0.09765625 6.640625 C-0.08605469 5.85171875 -0.07445312 5.0628125 -0.0625 4.25 C-0.05347656 3.45078125 -0.04445313 2.6515625 -0.03515625 1.828125 C-0.02355469 1.22484375 -0.01195312 0.6215625 0 0 Z " fill="#25E9F7" transform="translate(283,464)"/>
<path d="M0 0 C1 3 1 3 0.0390625 5.0859375 C-0.42757812 5.84132813 -0.89421875 6.59671875 -1.375 7.375 C-2.91421396 9.87729755 -3.94507007 11.71513081 -4.50390625 14.61328125 C-5.23182389 18.11531022 -7.40292832 19.66929464 -10 22 C-10.99 21.34 -11.98 20.68 -13 20 C-11.7315625 18.6696875 -11.7315625 18.6696875 -10.4375 17.3125 C-5.97005363 12.15201302 -3.07426219 6.04847444 0 0 Z " fill="#211418" transform="translate(242,466)"/>
<path d="M0 0 C0.78246094 -0.01417969 1.56492187 -0.02835937 2.37109375 -0.04296875 C4.5625 0.1875 4.5625 0.1875 7.5625 2.1875 C6.5625 3.1875 6.5625 3.1875 3.83984375 3.28515625 C2.18662109 3.26775391 2.18662109 3.26775391 0.5 3.25 C-1.15708984 3.23646484 -1.15708984 3.23646484 -2.84765625 3.22265625 C-3.70230469 3.21105469 -4.55695312 3.19945312 -5.4375 3.1875 C-5.7675 2.5275 -6.0975 1.8675 -6.4375 1.1875 C-4.0978331 0.01766655 -2.60358473 0.0213759 0 0 Z " fill="#2A2A2B" transform="translate(609.4375,493.8125)"/>
<path d="M0 0 C1.45792884 -0.05399736 2.91642712 -0.09279177 4.375 -0.125 C5.18710937 -0.14820313 5.99921875 -0.17140625 6.8359375 -0.1953125 C9 0 9 0 11 2 C10.01 2.99 9.02 3.98 8 5 C5.03 4.01 2.06 3.02 -1 2 C-0.67 1.34 -0.34 0.68 0 0 Z " fill="#1C1C1D" transform="translate(487,425)"/>
<path d="M0 0 C1 3 1 3 -0.21484375 5.91796875 C-0.78332031 6.99691406 -1.35179687 8.07585938 -1.9375 9.1875 C-2.50339844 10.27417969 -3.06929687 11.36085938 -3.65234375 12.48046875 C-4.09707031 13.31191406 -4.54179687 14.14335938 -5 15 C-5.33 15 -5.66 15 -6 15 C-6 10.71 -6 6.42 -6 2 C-5.67 2 -5.34 2 -5 2 C-4.67 3.98 -4.34 5.96 -4 8 C-2.68 5.36 -1.36 2.72 0 0 Z " fill="#230709" transform="translate(185,531)"/>
<path d="M0 0 C1.21236328 0.01353516 1.21236328 0.01353516 2.44921875 0.02734375 C3.37154297 0.04474609 3.37154297 0.04474609 4.3125 0.0625 C4.6425 1.0525 4.9725 2.0425 5.3125 3.0625 C0.6925 3.0625 -3.9275 3.0625 -8.6875 3.0625 C-6.88341097 -0.54567807 -3.60175697 -0.05219938 0 0 Z " fill="#2E2E30" transform="translate(574.6875,390.9375)"/>
<path d="M0 0 C0.33 0 0.66 0 1 0 C1.22212255 2.74951693 1.42815588 5.49865612 1.625 8.25 C1.68945312 9.02730469 1.75390625 9.80460937 1.8203125 10.60546875 C2.30707097 17.72431144 2.30707097 17.72431144 0 21 C-0.66 20.67 -1.32 20.34 -2 20 C-1.84660156 19.33613281 -1.69320312 18.67226563 -1.53515625 17.98828125 C-0.89226979 14.39844078 -0.64966009 10.82204581 -0.4375 7.1875 C-0.39431641 6.49462891 -0.35113281 5.80175781 -0.30664062 5.08789062 C-0.20138547 3.39211314 -0.10027137 1.69607948 0 0 Z " fill="#26131B" transform="translate(201,487)"/>
<path d="M0 0 C0.99 0 1.98 0 3 0 C3 2.64 3 5.28 3 8 C2.34 8 1.68 8 1 8 C1 9.65 1 11.3 1 13 C0.01 12.67 -0.98 12.34 -2 12 C-1.34 12 -0.68 12 0 12 C0 8.04 0 4.08 0 0 Z " fill="#2A292C" transform="translate(722,525)"/>
<path d="M0 0 C2.34545328 2.34545328 2.95508888 3.95985838 3.09765625 7.26171875 C3.08605469 8.06222656 3.07445312 8.86273437 3.0625 9.6875 C3.05347656 10.49574219 3.04445313 11.30398438 3.03515625 12.13671875 C3.02355469 12.75160156 3.01195312 13.36648438 3 14 C2.67 14 2.34 14 2 14 C2 12.35 2 10.7 2 9 C1.34 9 0.68 9 0 9 C0 6.03 0 3.06 0 0 Z " fill="#131314" transform="translate(721,516)"/>
<path d="M0 0 C1.670625 0.061875 1.670625 0.061875 3.375 0.125 C3.705 1.445 4.035 2.765 4.375 4.125 C1.04166667 4.125 -2.29166667 4.125 -5.625 4.125 C-5.625 0.12403124 -3.58125362 0.1234915 0 0 Z " fill="#2D2C2F" transform="translate(563.625,423.875)"/>
<path d="M0 0 C1.258125 -0.020625 2.51625 -0.04125 3.8125 -0.0625 C4.52019531 -0.07410156 5.22789062 -0.08570313 5.95703125 -0.09765625 C8 0 8 0 11 1 C11 1.99 11 2.98 11 4 C7.37 3.34 3.74 2.68 0 2 C0 1.34 0 0.68 0 0 Z " fill="#23D5F2" transform="translate(231,409)"/>
<path d="M0 0 C0.66 0.33 1.32 0.66 2 1 C1.875 4.3125 1.875 4.3125 1 8 C-1.9375 10 -1.9375 10 -5 11 C-5.66 10.67 -6.32 10.34 -7 10 C-6.21625 9.649375 -5.4325 9.29875 -4.625 8.9375 C-1.16452728 6.38334156 -0.85463256 4.11777506 0 0 Z " fill="#230F10" transform="translate(214,498)"/>
<path d="M0 0 C-0.99 0 -1.98 0 -3 0 C-2.67 0.99 -2.34 1.98 -2 3 C-3.98 4.32 -5.96 5.64 -8 7 C-8.66 6.67 -9.32 6.34 -10 6 C-8.35 5.34 -6.7 4.68 -5 4 C-5.33 2.68 -5.66 1.36 -6 0 C-3.50907189 -1.24546405 -2.58919267 -0.7767578 0 0 Z " fill="#26D4F8" transform="translate(223,491)"/>
<path d="M0 0 C1.9375 0.75 1.9375 0.75 4 2 C4.62890625 4.078125 4.62890625 4.078125 5 6 C3.35333797 5.8864371 1.70763918 5.75882619 0.0625 5.625 C-1.31228516 5.52058594 -1.31228516 5.52058594 -2.71484375 5.4140625 C-3.84599609 5.20910156 -3.84599609 5.20910156 -5 5 C-5.33 4.34 -5.66 3.68 -6 3 C-3.69 3.33 -1.38 3.66 1 4 C0.67 2.68 0.34 1.36 0 0 Z " fill="#2E2D30" transform="translate(589,398)"/>
<path d="M0 0 C1.42944945 2.35438733 2.08661261 3.48032433 1.625 6.25 C1.41875 6.8275 1.2125 7.405 1 8 C-2.375 8.125 -2.375 8.125 -6 8 C-6.66 7.34 -7.32 6.68 -8 6 C-4.535 5.505 -4.535 5.505 -1 5 C-0.67 3.35 -0.34 1.7 0 0 Z " fill="#2B2B2E" transform="translate(547,377)"/>
<path d="M0 0 C1.60600892 3.21201784 0.05786315 5.70887021 -1 9 C-1.33 9.66 -1.66 10.32 -2 11 C-2.99 10.67 -3.98 10.34 -5 10 C-3.35 6.7 -1.7 3.4 0 0 Z " fill="#23B8F3" transform="translate(176,556)"/>
<path d="M0 0 C0.33 1.98 0.66 3.96 1 6 C0.01 5.67 -0.98 5.34 -2 5 C-2.66 5.99 -3.32 6.98 -4 8 C-4.75 6.25 -4.75 6.25 -5 4 C-1.66666667 0 -1.66666667 0 0 0 Z " fill="#22D3F5" transform="translate(299,508)"/>
<path d="M0 0 C2.64 0 5.28 0 8 0 C8 0.66 8 1.32 8 2 C8.99 2.33 9.98 2.66 11 3 C7.7 3 4.4 3 1 3 C0.67 2.01 0.34 1.02 0 0 Z " fill="#313032" transform="translate(601,507)"/>
<path d="M0 0 C0.66 0 1.32 0 2 0 C2 0.99 2 1.98 2 3 C4.31 3 6.62 3 9 3 C8.34 3.66 7.68 4.32 7 5 C4.8359375 4.7578125 4.8359375 4.7578125 2.375 4.125 C1.55773437 3.92132812 0.74046875 3.71765625 -0.1015625 3.5078125 C-0.72804687 3.34023438 -1.35453125 3.17265625 -2 3 C-1.34 2.67 -0.68 2.34 0 2 C0 1.34 0 0.68 0 0 Z " fill="#26D8F9" transform="translate(182,550)"/>
<path d="M0 0 C1.06739919 3.20219758 1.10959246 3.94862074 0 7 C-1.5625 9.25 -1.5625 9.25 -3 11 C-2.53199289 6.94393835 -2.12046792 3.53411321 0 0 Z " fill="#17B9FC" transform="translate(86,456)"/>
<path d="M0 0 C0.66 0 1.32 0 2 0 C2 1.65 2 3.3 2 5 C2.66 5.33 3.32 5.66 4 6 C0.52176885 7.15941038 -1.45895578 6.70820884 -5 6 C-2 4 -2 4 1 4 C0.67 2.68 0.34 1.36 0 0 Z " fill="#2A292B" transform="translate(527,432)"/>
<path d="M0 0 C1.43088528 2.86177057 0.59991697 4.93375773 0 8 C-0.66 8 -1.32 8 -2 8 C-2.33 9.32 -2.66 10.64 -3 12 C-3.2954439 6.97745369 -2.98514628 4.10457614 0 0 Z " fill="#121214" transform="translate(458,401)"/>
<path d="M0 0 C5.53846154 0.49230769 5.53846154 0.49230769 7.875 3.0625 C8.431875 4.0215625 8.431875 4.0215625 9 5 C6 5 6 5 3 3 C3 2.34 3 1.68 3 1 C2.01 0.67 1.02 0.34 0 0 Z " fill="#262628" transform="translate(707,501)"/>
<path d="M0 0 C2.31 0.33 4.62 0.66 7 1 C6.67 1.66 6.34 2.32 6 3 C4.02 3 2.04 3 0 3 C0 2.01 0 1.02 0 0 Z " fill="#2A2A2B" transform="translate(883,464)"/>
<path d="M0 0 C0.53625 0.2475 1.0725 0.495 1.625 0.75 C0.655625 1.018125 -0.31375 1.28625 -1.3125 1.5625 C-2.323125 1.954375 -3.33375 2.34625 -4.375 2.75 C-4.705 3.74 -5.035 4.73 -5.375 5.75 C-6.365 5.09 -7.355 4.43 -8.375 3.75 C-2.95961538 -0.31153846 -2.95961538 -0.31153846 0 0 Z " fill="#221111" transform="translate(181.375,411.25)"/>
<path d="M0 0 C0.33 0 0.66 0 1 0 C1 2.97 1 5.94 1 9 C0.01 8.67 -0.98 8.34 -2 8 C-2.125 5.125 -2.125 5.125 -2 2 C-1.34 1.34 -0.68 0.68 0 0 Z " fill="#2C2C2D" transform="translate(488,596)"/>
<path d="M0 0 C0.33 0.99 0.66 1.98 1 3 C1.66 3 2.32 3 3 3 C3 4.65 3 6.3 3 8 C2.01 8.33 1.02 8.66 0 9 C0 6.03 0 3.06 0 0 Z " fill="#22D5F8" transform="translate(283,464)"/>
</svg>
