<svg xmlns:xlink="http://www.w3.org/1999/xlink"  xmlns="http://www.w3.org/2000/svg" width="225" height="66" viewBox="0 0 225 66" fill="none"><script xmlns=""/><script xmlns=""/>
<path d="M28.5869 14.7061C28.5869 6.86014 22.1873 0.5 14.2927 0.5C6.39797 0.5 0 6.86014 0 14.7061C0 22.5521 6.3996 28.9123 14.2927 28.9123C22.1857 28.9123 28.5869 22.5521 28.5869 14.7061Z" fill="#00D1FF"/>
<path d="M23.9393 13.9955C23.9393 13.9616 23.3202 13.5691 22.9951 13.364C22.8538 13.2768 22.7238 13.1734 22.6051 13.0571C22.3614 12.8181 21.9551 12.3998 21.8235 12.1414C21.739 11.9767 21.7731 11.6811 21.8397 11.3985C21.9551 10.9026 21.8673 10.381 21.5992 9.94814L21.175 9.26335C20.9817 8.95003 20.8224 8.61571 20.7086 8.26686C20.6079 7.95353 20.3966 7.49808 19.9676 7.08301C19.2786 6.41437 17.3723 6.08651 15.7879 6.03322C15.692 6.00576 15.5929 5.97992 15.4905 5.96215C14.7852 5.84264 14.0328 5.65045 13.3584 5.77481C12.3557 5.96054 11.3433 6.27225 10.5876 7.04263C10.4348 7.19768 10.1976 7.27197 10.0318 7.41894C9.7068 7.71127 9.26802 7.71127 8.97876 8.0359C8.80975 8.22486 8.73175 8.84343 8.28647 9.07923C7.55193 9.47008 7.00915 9.9013 6.83039 10.121C6.69551 10.2857 6.5915 10.4795 6.45987 10.6491C6.32662 10.8219 5.69283 11.1158 5.5092 11.3C5.32556 11.4825 5.07855 11.9298 5.18905 12.458C5.1988 12.5064 5.20855 12.5452 5.21505 12.5775C5.28818 12.8456 5.48482 13.3317 5.43932 13.5546C5.38569 13.8178 4.70315 15.785 6.22911 16.3099C6.546 16.4197 6.68088 16.6313 6.71664 16.9559C6.74264 17.1982 6.81577 17.4453 6.94252 17.7118C7.08066 18.0025 7.3553 18.1608 7.37805 18.1801C7.47068 18.2609 7.89808 18.705 7.93383 18.7696C8.47498 19.7645 8.32385 20.262 9.35903 20.5995C9.62554 20.6867 9.88068 20.803 10.1212 20.9467C10.4852 21.1632 10.8167 21.2875 11.0556 21.3586C11.0654 21.3618 11.08 21.3667 11.0962 21.3731C11.327 20.8208 11.5594 20.2959 11.7934 19.8017C9.92781 17.9007 10.4186 15.7705 10.5973 15.2003C10.6201 15.126 10.7111 15.1018 10.7696 15.1519C11.1613 15.4927 12.3508 16.7217 12.2111 18.9425C12.6222 18.1252 13.0236 17.4065 13.3892 16.7928C12.0437 14.5252 13.0464 12.5371 13.3632 12.0138C13.4039 11.946 13.5014 11.9444 13.5453 12.009C13.8199 12.4143 14.5658 13.7419 14.1043 15.6542C14.4391 15.1454 14.7104 14.7691 14.8892 14.5333C15.3702 11.371 17.7721 10.3341 18.4043 10.1145C18.479 10.0887 18.5538 10.1468 18.5473 10.2243C18.4888 10.8784 18.0825 13.3963 15.2971 14.6884C14.9623 15.126 14.6389 15.588 14.3318 16.0612C15.3979 15.2326 16.8913 14.8434 18.1313 15.1438C18.2076 15.1616 18.2418 15.2504 18.1946 15.3118C17.8387 15.7818 16.4184 17.3645 13.7468 17.0011C13.295 17.7586 12.8806 18.5241 12.5133 19.2574C13.6671 18.3901 15.354 18.0574 16.6638 18.4935C16.7386 18.5193 16.7662 18.6114 16.7109 18.6695C16.3047 19.104 14.7397 20.5317 12.1672 19.9648C11.9267 20.4719 11.5659 21.3037 11.3904 21.7155C11.3303 21.8576 11.275 21.9998 11.2246 22.1451C11.1109 22.4811 10.9565 22.8978 10.7745 23.3177C10.664 23.5696 10.7956 23.8587 11.0556 23.9508C12.1574 24.3432 13.3421 24.558 14.5804 24.558C15.5457 24.558 16.4802 24.4272 17.3675 24.1833C17.5072 24.1446 17.6194 24.0428 17.6762 23.912C17.7201 23.8103 17.7624 23.7134 17.7624 23.7134C17.7624 23.7134 18.6594 21.6428 18.7927 20.74C18.8447 20.3847 18.9487 20.1198 19.0559 19.926C19.1989 19.6692 19.4638 19.5029 19.7596 19.4867C20.4438 19.4512 21.8998 19.3559 22.4296 19.1896C23.1333 18.9667 22.8278 17.6924 22.7904 17.5551C22.753 17.4162 23.1284 17.098 23.2064 16.9123C23.2844 16.7266 23.0163 16.662 22.9074 16.4569C22.7985 16.2517 23.1788 16.1048 23.2324 15.919C23.286 15.7333 23.1089 15.5298 23.0358 15.3925C22.9626 15.2553 22.9366 15.0841 22.9366 15.0841C22.9366 15.0841 23.4518 14.7094 23.7248 14.4719C23.9978 14.2361 23.9474 14.0407 23.9474 13.9939" fill="black"/>
<path d="M42.8684 19.4608V13.7952L40.8061 17.9201H39.5922L37.5299 13.7952V19.4608H35.3198V9.94971H37.7185L40.2 14.9193L42.6928 9.94971H45.0785V19.4608H42.8684Z" fill="black"/>
<path d="M54.9834 17.5324V19.4608H48.2588V9.94971H54.8632V11.8797H50.4689V13.7274H54.2424V15.5088H50.4689V17.5324H54.9834Z" fill="black"/>
<path d="M64.9711 11.8797H62.0606V19.4608H59.8505V11.8797H56.9253V9.94971H64.9711V11.8797Z" fill="black"/>
<path d="M69.6076 9.94971H67.3975V19.4592H69.6076V9.94971Z" fill="black"/>
<path d="M78.5295 12.7502C78.5018 12.705 78.4076 12.6372 78.2467 12.5419C78.0858 12.4482 77.8827 12.3481 77.6405 12.2399C77.3984 12.1333 77.1335 12.0396 76.8459 11.9588C76.5582 11.8781 76.2706 11.8377 75.9829 11.8377C75.6059 11.8377 75.3134 11.9023 75.107 12.0299C74.9006 12.1591 74.7966 12.3561 74.7966 12.621C74.7966 12.8342 74.8746 13.0022 75.0323 13.1265C75.1899 13.2509 75.4158 13.3591 75.7132 13.4528C76.0089 13.5465 76.373 13.6547 76.8052 13.779C77.4163 13.9389 77.9461 14.1311 78.3962 14.3572C78.8447 14.5833 79.1892 14.874 79.4265 15.2277C79.6638 15.5831 79.784 16.053 79.784 16.6377C79.784 17.1707 79.6849 17.6197 79.4866 17.9879C79.2884 18.3561 79.0219 18.6533 78.6855 18.8794C78.3491 19.1055 77.9639 19.2703 77.5333 19.372C77.1026 19.4737 76.6574 19.5254 76.1991 19.5254C75.7408 19.5254 75.2533 19.4786 74.7641 19.3849C74.275 19.2912 73.8053 19.1572 73.3552 18.9828C72.905 18.8083 72.4923 18.5968 72.1152 18.3464L73.0854 16.431C73.1212 16.4762 73.2382 16.5586 73.4364 16.6781C73.6347 16.7992 73.8785 16.9236 74.171 17.0528C74.4635 17.182 74.7885 17.2966 75.1477 17.3952C75.5068 17.4937 75.8708 17.5421 76.2397 17.5421C76.6346 17.5421 76.9287 17.4808 77.1221 17.358C77.3155 17.2353 77.4114 17.0657 77.4114 16.846C77.4114 16.607 77.3106 16.4197 77.1075 16.2872C76.906 16.1548 76.6314 16.0337 76.2852 15.9271C75.9391 15.8205 75.5409 15.701 75.0924 15.5669C74.5074 15.3892 74.0247 15.189 73.6428 14.9677C73.2609 14.7464 72.9782 14.4751 72.7945 14.1553C72.6109 13.8355 72.5183 13.4366 72.5183 12.957C72.5183 12.2915 72.6775 11.7295 72.996 11.2724C73.3145 10.8154 73.7436 10.4681 74.2831 10.2339C74.8226 9.99815 75.4109 9.88025 76.0479 9.88025C76.4965 9.88025 76.9304 9.93355 77.348 10.0418C77.7657 10.1484 78.1573 10.2824 78.5213 10.4439C78.8854 10.6038 79.2104 10.7653 79.498 10.9268L78.5278 12.7486L78.5295 12.7502Z" fill="black"/>
<path d="M56.4151 39.4199H40.8939V27.105H35.3198V56.9337H40.8939V44.1504H56.4151V56.9337H61.9453V27.105H56.4151V39.4199Z" fill="black"/>
<path d="M77.7363 51.0596L70.477 34.179H64.9469L74.946 56.9821L74.5511 57.872C74.036 59.0365 73.4786 59.8601 72.8789 60.3431C72.2793 60.826 71.4927 61.0682 70.5209 61.0682C69.7766 61.0682 69.0697 60.9261 68.3986 60.6418C67.7274 60.3576 67.1196 59.9877 66.5768 59.5339L64.4756 63.4117C65.189 64.0642 66.1056 64.5761 67.2204 64.946C68.3352 65.3142 69.463 65.5 70.607 65.5C71.8649 65.5 73.0301 65.2932 74.101 64.8814C75.1735 64.4695 76.1437 63.7735 77.0164 62.7931C77.8874 61.8128 78.6805 60.4852 79.3955 58.8087L90.1146 34.179H84.9696L77.7363 51.0596Z" fill="black"/>
<path d="M115.39 39.4199C114.374 37.6595 112.996 36.2948 111.252 35.329C109.508 34.3632 107.522 33.8802 105.293 33.8802C103.377 33.8802 101.648 34.3002 100.106 35.1368C99.1971 35.6294 98.4138 36.2802 97.7475 37.0781V34.1774H92.6448V65.198H97.9621V54.1574C98.6088 54.8987 99.3499 55.5076 100.192 55.9728C101.706 56.811 103.408 57.2293 105.294 57.2293C107.524 57.2293 109.51 56.7464 111.254 55.7806C112.997 54.8148 114.375 53.4581 115.391 51.7122C116.405 49.9647 116.914 47.9136 116.914 45.554C116.914 43.1943 116.405 41.1804 115.391 39.4183L115.39 39.4199ZM110.566 49.3058C109.967 50.3862 109.157 51.2228 108.143 51.8188C107.128 52.4148 105.964 52.7136 104.649 52.7136C103.335 52.7136 102.247 52.4148 101.219 51.8188C100.19 51.2228 99.3759 50.3846 98.7746 49.3058C98.1749 48.2269 97.8743 46.9768 97.8743 45.5556C97.8743 44.1343 98.1749 42.8503 98.7746 41.7844C99.3743 40.7184 100.19 39.8948 101.219 39.3133C102.247 38.7319 103.39 38.4396 104.649 38.4396C105.909 38.4396 107.129 38.7319 108.143 39.3133C109.157 39.8964 109.965 40.7201 110.566 41.7844C111.166 42.8503 111.467 44.1069 111.467 45.5556C111.467 47.0043 111.166 48.2269 110.566 49.3058Z" fill="black"/>
<path d="M137.063 35.3515C135.32 34.3712 133.334 33.8818 131.104 33.8818C128.874 33.8818 126.78 34.3857 124.994 35.3952C123.208 36.4046 121.807 37.7806 120.791 39.5281C119.776 41.2756 119.269 43.2848 119.269 45.5572C119.269 47.8296 119.79 49.8387 120.834 51.5862C121.877 53.3337 123.349 54.7114 125.249 55.7192C127.15 56.7286 129.372 57.2325 131.917 57.2325C133.917 57.2325 135.697 56.9208 137.255 56.2941C138.812 55.6691 140.12 54.7598 141.178 53.5679L138.263 50.2441C137.461 51.0678 136.548 51.6928 135.518 52.1192C134.489 52.5456 133.33 52.7587 132.045 52.7587C130.529 52.7587 129.201 52.468 128.057 51.885C126.913 51.3036 126.034 50.4863 125.42 49.4349C125.033 48.7728 124.768 48.0476 124.625 47.2611H142.592C142.619 47.0349 142.641 46.7717 142.657 46.4729C142.671 46.1741 142.678 45.927 142.678 45.7267C142.678 43.3122 142.177 41.2255 141.178 39.4635C140.177 37.7031 138.805 36.3319 137.062 35.3515H137.063ZM125.316 41.4226C125.858 40.4002 126.637 39.6121 127.652 39.0581C128.666 38.5042 129.817 38.2264 131.104 38.2264C132.391 38.2264 133.563 38.5042 134.535 39.0581C135.506 39.6121 136.272 40.3938 136.829 41.4016C137.221 42.109 137.463 42.8842 137.565 43.7241H124.589C124.708 42.8858 124.948 42.1171 125.317 41.4226H125.316Z" fill="black"/>
<path d="M152.112 37.4867V34.179H147.009V56.9337H152.326V45.94C152.326 43.5529 152.926 41.7779 154.127 40.6135C155.328 39.449 156.956 38.866 159.015 38.866C159.187 38.866 159.372 38.8724 159.572 38.887C159.772 38.9015 159.972 38.9225 160.172 38.9516V33.8802C158.029 33.8802 156.213 34.2856 154.726 35.0948C153.628 35.6924 152.757 36.4902 152.112 37.4851V37.4867Z" fill="black"/>
<path d="M169.477 34.179H164.16V56.9336H169.477V34.179Z" fill="black"/>
<path d="M166.819 24.038C165.818 24.038 164.997 24.3513 164.353 24.9747C163.71 25.5998 163.388 26.3378 163.388 27.1906C163.388 28.0999 163.71 28.867 164.353 29.4921C164.997 30.1171 165.818 30.4288 166.819 30.4288C167.82 30.4288 168.676 30.109 169.305 29.4695C169.934 28.8299 170.248 28.0563 170.248 27.147C170.248 26.2377 169.926 25.4932 169.282 24.9101C168.639 24.3287 167.817 24.0364 166.817 24.0364L166.819 24.038Z" fill="black"/>
<path d="M223.734 38.2264C222.891 36.7502 221.761 35.6552 220.348 34.9446C218.932 34.2356 217.296 33.8802 215.438 33.8802C213.438 33.8802 211.671 34.2776 210.144 35.0738C209.123 35.6051 208.275 36.2835 207.592 37.1055V34.179H202.49V56.9337H207.807V45.4296C207.807 43.8953 208.07 42.6242 208.6 41.6164C209.128 40.6086 209.879 39.8479 210.851 39.3359C211.822 38.824 212.937 38.5688 214.195 38.5688C215.939 38.5688 217.283 39.0662 218.225 40.0595C219.168 41.0544 219.641 42.5596 219.641 44.5768V56.9337H225V43.8953C225 41.5938 224.578 39.7058 223.736 38.228L223.734 38.2264Z" fill="black"/>
<path fill-rule="evenodd" clip-rule="evenodd" d="M192.284 39.9868C192.038 40.0062 191.783 40.0305 191.533 40.0611C191.302 40.0934 191.076 40.1322 190.85 40.1758C191.26 40.5311 191.632 40.93 191.954 41.3677C192.471 42.0703 192.744 42.8391 192.394 43.6918C191.778 45.2035 189.58 46.5408 188.364 47.4355C190.353 46.4681 192.401 45.2181 193.958 43.75C194.497 43.2412 196.038 41.6229 195.653 40.7556C195.267 39.8883 193.028 39.9352 192.282 39.9868H192.284Z" fill="black"/>
<path fill-rule="evenodd" clip-rule="evenodd" d="M196.595 39.5055C195.552 37.7726 194.109 36.403 192.264 35.3936C190.421 34.3858 188.312 33.8802 185.939 33.8802C183.567 33.8802 181.508 34.3842 179.68 35.3936C177.85 36.403 176.407 37.7726 175.349 39.5055C174.291 41.2385 173.763 43.2557 173.763 45.5572C173.763 47.8587 174.291 49.8048 175.349 51.5652C176.407 53.3273 177.856 54.7114 179.701 55.7192C181.545 56.7286 183.624 57.2325 185.939 57.2325C188.255 57.2325 190.384 56.7286 192.242 55.7192C194.099 54.7114 195.55 53.3337 196.594 51.5862C197.637 49.8387 198.159 47.8296 198.159 45.5572C198.159 43.2848 197.637 41.2401 196.594 39.5055H196.595ZM193.332 45.6767C193.28 49.5706 190.088 52.7152 186.154 52.7152C185.515 52.7152 184.899 52.6199 184.305 52.4745C181.209 51.7138 184.968 50.3313 185.948 49.6772C185.146 49.9857 184.327 50.249 183.494 50.4735C182.784 50.6705 182.093 50.8288 181.438 50.9434L181.422 50.9467C178.349 51.4909 176.026 51.155 175.454 49.8694C174.978 48.8035 176.285 47.0834 178.206 45.4264C178.198 45.6396 178.202 45.8479 178.217 46.0611C178.142 46.1241 178.071 46.1919 177.999 46.2581C177.46 46.7669 175.919 48.3852 176.304 49.2525C176.689 50.1198 178.932 50.0729 179.675 50.0212C179.936 50.0019 180.206 49.9744 180.473 49.9421C179.532 48.734 178.973 47.2191 178.973 45.575C178.973 41.6342 182.189 38.438 186.154 38.438C187.651 38.438 189.04 38.8918 190.187 39.6687C190.449 39.6057 190.711 39.5459 190.977 39.4958C193.792 39.0775 195.892 39.4409 196.433 40.6555C196.997 41.9217 195.731 43.8113 193.332 45.6735V45.6767Z" fill="black"/>
<script xmlns="" async="false" type="module" src="chrome-extension://nfmppnghnhlfnfnhfnahilhfaiahmhfj/src/contentScript/inject.js"/></svg>